<?xml version="1.0" standalone="no"?>
<!DOCTYPE svg PUBLIC "-//W3C//DTD SVG 20010904//EN"
 "http://www.w3.org/TR/2001/REC-SVG-20010904/DTD/svg10.dtd">
<svg version="1.0" xmlns="http://www.w3.org/2000/svg"
 width="35.000000pt" height="35.000000pt" viewBox="0 0 100.000000 100.000000"
 preserveAspectRatio="xMidYMid meet">

<g transform="translate(0.000000,100.000000) scale(0.100000,-0.100000)"
fill="#000000" stroke="none">
<path d="M187 948 c-25 -19 -44 -75 -52 -151 -5 -47 -14 -80 -30 -104 -22 -32
-65 -133 -65 -152 0 -4 17 -28 38 -52 52 -60 143 -182 235 -315 84 -122 101
-134 187 -134 86 0 103 12 187 134 70 101 181 250 249 333 26 32 26 32 10 81
-9 27 -29 69 -45 94 -21 33 -30 62 -35 118 -4 41 -16 91 -27 112 -27 53 -56
58 -119 19 l-50 -31 -170 0 -169 0 -48 30 c-51 33 -71 36 -96 18z m79 -55 c44
-28 54 -52 35 -82 -6 -10 -19 -12 -46 -7 -28 6 -42 3 -56 -10 -18 -17 -19 -16
-19 25 0 39 23 101 37 101 3 0 25 -12 49 -27z m539 -3 c8 -16 15 -48 15 -71 0
-41 -1 -42 -19 -25 -14 13 -28 16 -56 10 -40 -7 -55 4 -55 41 0 18 70 74 92
75 4 0 14 -13 23 -30z m-217 -102 c-10 -40 -21 -127 -25 -193 -8 -176 12 -283
73 -376 16 -25 16 -27 -10 -65 -17 -26 -26 -33 -26 -21 0 21 -55 47 -100 47
-45 0 -100 -26 -100 -47 0 -12 -9 -5 -26 21 -26 38 -26 40 -10 65 53 81 76
176 76 316 0 85 -22 253 -39 298 l-11 27 108 0 108 0 -18 -72z m-391 -123 c15
-19 41 -61 58 -92 24 -47 35 -58 55 -58 31 0 40 -33 15 -51 -16 -12 -16 -19
-6 -60 12 -46 17 -161 8 -170 -3 -3 -30 31 -61 76 -31 44 -85 116 -120 159
l-63 78 17 45 c20 53 51 108 62 108 4 0 20 -16 35 -35z m668 3 c10 -17 26 -52
35 -76 l17 -45 -63 -78 c-35 -43 -89 -116 -121 -161 -57 -81 -58 -82 -64 -53
-6 34 -3 77 13 148 9 42 8 50 -7 61 -25 18 -15 51 15 51 20 0 30 11 53 56 29
57 82 129 96 129 3 0 15 -14 26 -32z m-317 -537 c8 -5 12 -17 10 -27 -3 -16
-12 -19 -58 -19 -46 0 -55 3 -58 19 -2 10 2 22 10 27 17 11 79 11 96 0z"/>
</g>
</svg>
