<?xml version="1.0" standalone="no"?>
<!DOCTYPE svg PUBLIC "-//W3C//DTD SVG 20010904//EN"
 "http://www.w3.org/TR/2001/REC-SVG-20010904/DTD/svg10.dtd">
<svg version="1.0" xmlns="http://www.w3.org/2000/svg"
 width="35.000000pt" height="35.000000pt" viewBox="0 0 1280.000000 1280.000000"
 preserveAspectRatio="xMidYMid meet">
<metadata>
Created by potrace 1.15, written by Peter Selinger 2001-2017
</metadata>
<g transform="translate(0.000000,1280.000000) scale(0.100000,-0.100000)"
fill="#000000" stroke="none">
<path d="M8736 12299 c-143 -19 -250 -57 -353 -126 -32 -22 -85 -54 -119 -72
-33 -17 -87 -53 -120 -80 -37 -30 -77 -52 -108 -60 -193 -48 -338 -227 -338
-416 1 -83 16 -152 48 -217 19 -37 24 -64 24 -123 0 -142 16 -208 88 -355 36
-74 86 -166 110 -205 90 -140 334 -456 370 -480 76 -50 228 -58 311 -16 22 12
51 35 64 53 37 51 161 298 222 446 74 177 91 254 76 341 -7 43 -8 85 -3 119 8
46 16 59 64 105 30 29 61 68 68 87 7 19 15 36 16 38 9 13 254 -151 409 -275
222 -177 506 -476 667 -699 252 -352 501 -861 638 -1305 101 -329 182 -722
210 -1019 21 -227 23 -542 6 -757 -18 -220 -28 -282 -80 -525 -42 -196 -60
-256 -138 -458 -77 -200 -127 -303 -230 -473 -106 -175 -177 -270 -317 -425
-194 -213 -402 -381 -673 -545 -213 -129 -535 -265 -776 -327 l-44 -11 -262
155 c-195 114 -306 173 -432 226 -93 39 -170 73 -172 75 -2 1 75 28 170 59
l173 56 68 66 c83 80 131 169 122 223 -9 49 -61 148 -106 203 -32 37 -78 67
-237 155 -204 114 -242 130 -505 219 -168 56 -269 79 -232 51 11 -8 121 -76
245 -151 219 -133 229 -141 357 -269 73 -72 129 -135 125 -139 -5 -5 -87 -18
-183 -29 -165 -20 -192 -21 -539 -10 -249 7 -432 18 -575 34 -206 24 -214 25
-425 95 -298 98 -1051 292 -1400 361 -357 71 -806 131 -977 131 -130 0 -239
-36 -361 -118 -243 -166 -295 -385 -142 -607 38 -56 122 -120 190 -146 72 -27
295 -75 436 -94 66 -8 195 -36 285 -61 90 -25 245 -65 344 -89 99 -24 279 -76
400 -115 121 -40 319 -103 440 -141 121 -37 303 -102 405 -143 l185 -75 -240
-1 c-326 0 -1089 -18 -1310 -30 -99 -5 -331 -14 -515 -20 -810 -25 -1386 -85
-1657 -172 -213 -67 -666 -291 -788 -388 -158 -126 -427 -445 -524 -621 -160
-293 -222 -899 -114 -1112 18 -36 131 -185 202 -266 54 -62 244 -213 336 -267
168 -98 716 -318 880 -353 82 -17 408 -59 585 -75 91 -8 293 -33 450 -54 157
-22 323 -43 370 -46 47 -3 229 -15 405 -27 176 -11 412 -31 525 -44 113 -14
313 -34 445 -46 278 -24 509 -21 935 11 140 11 365 24 500 30 520 21 637 39
1204 181 650 163 860 232 1116 368 255 136 420 240 541 341 86 72 114 103 180
202 187 278 250 526 220 874 -8 102 -19 158 -50 259 -22 71 -38 132 -35 136 2
4 48 31 102 59 505 269 1002 681 1357 1125 220 274 330 444 498 765 106 205
158 329 242 585 108 327 141 463 189 800 148 1021 -61 2193 -580 3250 -349
712 -863 1374 -1384 1784 -291 229 -560 383 -876 502 -231 87 -519 131 -698
108z"/>
</g>
</svg>
